<mxfile host="65bd71144e">
    <diagram id="R2lEEEUBdFMjLlhIrx00" name="Page-1">
        <mxGraphModel dx="1236" dy="1213" grid="1" gridSize="10" guides="1" tooltips="1" connect="1" arrows="1" fold="1" page="1" pageScale="1" pageWidth="850" pageHeight="1100" math="0" shadow="0" extFonts="Permanent Marker^https://fonts.googleapis.com/css?family=Permanent+Marker">
            <root>
                <mxCell id="0"/>
                <mxCell id="1" parent="0"/>
                <mxCell id="66" value="" style="rounded=0;whiteSpace=wrap;html=1;fontFamily=Verdana;fontSize=14;fontColor=#333333;strokeColor=#000000;fillColor=#f5f5f5;" vertex="1" parent="1">
                    <mxGeometry x="40" y="50" width="810" height="430" as="geometry"/>
                </mxCell>
                <mxCell id="58" style="edgeStyle=none;html=1;exitX=1;exitY=0.5;exitDx=0;exitDy=0;entryX=-0.014;entryY=0.093;entryDx=0;entryDy=0;entryPerimeter=0;fontFamily=Verdana;fontSize=14;strokeWidth=2;endArrow=block;endFill=1;strokeColor=#000000;" edge="1" parent="1" source="48" target="56">
                    <mxGeometry relative="1" as="geometry"/>
                </mxCell>
                <mxCell id="48" value="System Logs" style="rounded=1;whiteSpace=wrap;html=1;fillColor=#ffe6cc;fontSize=14;fontFamily=Verdana;strokeColor=#000000;" vertex="1" parent="1">
                    <mxGeometry x="80" y="80" width="130" height="70" as="geometry"/>
                </mxCell>
                <mxCell id="59" style="edgeStyle=none;html=1;exitX=1;exitY=0.5;exitDx=0;exitDy=0;entryX=-0.032;entryY=0.35;entryDx=0;entryDy=0;entryPerimeter=0;fontFamily=Verdana;fontSize=14;endArrow=block;endFill=1;strokeWidth=2;strokeColor=#000000;" edge="1" parent="1" source="50" target="56">
                    <mxGeometry relative="1" as="geometry"/>
                </mxCell>
                <mxCell id="50" value="Application Logs" style="rounded=1;whiteSpace=wrap;html=1;fillColor=#ffe6cc;fontSize=14;fontFamily=Verdana;strokeColor=#000000;" vertex="1" parent="1">
                    <mxGeometry x="80" y="180" width="130" height="70" as="geometry"/>
                </mxCell>
                <mxCell id="60" style="edgeStyle=none;html=1;exitX=1;exitY=0.5;exitDx=0;exitDy=0;entryX=-0.032;entryY=0.607;entryDx=0;entryDy=0;entryPerimeter=0;fontFamily=Verdana;fontSize=14;endArrow=block;endFill=1;strokeWidth=2;strokeColor=#000000;" edge="1" parent="1" source="51" target="56">
                    <mxGeometry relative="1" as="geometry"/>
                </mxCell>
                <mxCell id="51" value="Database Logs" style="rounded=1;whiteSpace=wrap;html=1;fillColor=#ffe6cc;fontSize=14;fontFamily=Verdana;strokeColor=#000000;" vertex="1" parent="1">
                    <mxGeometry x="80" y="280" width="130" height="70" as="geometry"/>
                </mxCell>
                <mxCell id="61" style="edgeStyle=none;html=1;exitX=1;exitY=0.5;exitDx=0;exitDy=0;fontFamily=Verdana;fontSize=14;endArrow=block;endFill=1;strokeWidth=2;entryX=-0.032;entryY=0.864;entryDx=0;entryDy=0;entryPerimeter=0;strokeColor=#000000;" edge="1" parent="1" source="52" target="56">
                    <mxGeometry relative="1" as="geometry">
                        <mxPoint x="356" y="308" as="targetPoint"/>
                    </mxGeometry>
                </mxCell>
                <mxCell id="52" value="Network Logs" style="rounded=1;whiteSpace=wrap;html=1;fillColor=#ffe6cc;fontSize=14;fontFamily=Verdana;strokeColor=#000000;" vertex="1" parent="1">
                    <mxGeometry x="80" y="380" width="130" height="70" as="geometry"/>
                </mxCell>
                <mxCell id="63" value="" style="edgeStyle=none;html=1;fontFamily=Verdana;fontSize=14;endArrow=block;endFill=1;strokeWidth=2;entryX=0;entryY=0.5;entryDx=0;entryDy=0;entryPerimeter=0;strokeColor=#000000;" edge="1" parent="1" source="56" target="57">
                    <mxGeometry relative="1" as="geometry">
                        <mxPoint x="500" y="270" as="targetPoint"/>
                    </mxGeometry>
                </mxCell>
                <mxCell id="56" value="Log Integration" style="verticalLabelPosition=bottom;sketch=0;html=1;fillColor=#432D57;strokeColor=#000000;verticalAlign=top;pointerEvents=1;align=center;shape=mxgraph.cisco_safe.security_icons.log_management;rounded=1;fontFamily=Verdana;fontSize=14;fontColor=#000000;" vertex="1" parent="1">
                    <mxGeometry x="360" y="220" width="80" height="100" as="geometry"/>
                </mxCell>
                <mxCell id="65" style="edgeStyle=none;html=1;exitX=1;exitY=0.5;exitDx=0;exitDy=0;exitPerimeter=0;entryX=0;entryY=0.5;entryDx=0;entryDy=0;entryPerimeter=0;fontFamily=Verdana;fontSize=14;endArrow=block;endFill=1;strokeWidth=2;strokeColor=#000000;" edge="1" parent="1" source="57" target="64">
                    <mxGeometry relative="1" as="geometry"/>
                </mxCell>
                <mxCell id="57" value="Log Store&lt;br style=&quot;font-size: 14px;&quot;&gt;Search Engine" style="sketch=0;points=[[0,0,0],[0.25,0,0],[0.5,0,0],[0.75,0,0],[1,0,0],[0,1,0],[0.25,1,0],[0.5,1,0],[0.75,1,0],[1,1,0],[0,0.25,0],[0,0.5,0],[0,0.75,0],[1,0.25,0],[1,0.5,0],[1,0.75,0]];outlineConnect=0;gradientDirection=north;fillColor=none;strokeColor=#000000;dashed=0;verticalLabelPosition=bottom;verticalAlign=top;align=center;html=1;fontSize=14;fontStyle=0;aspect=fixed;shape=mxgraph.aws4.resourceIcon;resIcon=mxgraph.aws4.elasticsearch_service;rounded=1;fontFamily=Verdana;fontColor=#000000;" vertex="1" parent="1">
                    <mxGeometry x="560" y="231" width="78" height="78" as="geometry"/>
                </mxCell>
                <mxCell id="64" value="Log Data &lt;br&gt;Visualization" style="sketch=0;pointerEvents=1;shadow=0;dashed=0;html=1;strokeColor=#000000;labelPosition=center;verticalLabelPosition=bottom;verticalAlign=top;align=center;fillColor=#515151;shape=mxgraph.mscae.system_center.admin_console;rounded=1;fontFamily=Verdana;fontSize=14;" vertex="1" parent="1">
                    <mxGeometry x="730" y="240" width="80" height="60" as="geometry"/>
                </mxCell>
            </root>
        </mxGraphModel>
    </diagram>
</mxfile>